<svg width="535" height="364" viewBox="0 0 535 364" fill="none" xmlns="http://www.w3.org/2000/svg">
<g clip-path="url(#clip0)">
<path opacity="0.1" d="M315.127 358.637C278.965 338.631 237.655 332.238 197.284 340.812C140.078 352.971 68.1808 348.205 54.2546 254.404C30.4702 94.2069 130.14 51.9247 130.14 51.9247C130.14 51.9247 196.421 46.3756 235.614 25.2486C291.286 -4.77205 354.921 -8.59499 410.874 16.8053C446.656 33.0352 476.123 55.6351 481.158 86.6642C495.234 173.443 472.116 221.255 515.363 249.582C558.61 277.91 521.651 355.682 488.496 352.989C455.342 350.297 380.422 320.759 351.228 354.973C340.859 367.108 327.739 365.617 315.127 358.637Z" fill="#10C7AE"/>
<path opacity="0.1" d="M143.551 70.4594H292.76V80.7789H143.551V70.4594Z" fill="#10C7AE"/>
<path opacity="0.1" d="M143.551 115.021H292.76V125.341H143.551V115.021Z" fill="#10C7AE"/>
<path opacity="0.1" d="M143.551 161.459H292.76V171.779H143.551V161.459Z" fill="#10C7AE"/>
<path opacity="0.1" d="M270.238 43.7222H279.622V70.4593H270.238V43.7222Z" fill="#10C7AE"/>
<path opacity="0.1" d="M270.238 47.9438H279.622V49.8201H270.238V47.9438Z" fill="#10C7AE"/>
<path opacity="0.1" d="M270.238 62.4851H279.622V64.3614H270.238V62.4851Z" fill="#10C7AE"/>
<path opacity="0.1" d="M256.161 43.7222H265.546V70.4593H256.161V43.7222Z" fill="#10C7AE"/>
<path opacity="0.1" d="M256.161 47.9438H265.546V49.8201H256.161V47.9438Z" fill="#10C7AE"/>
<path opacity="0.1" d="M256.161 62.4851H265.546V64.3614H256.161V62.4851Z" fill="#10C7AE"/>
<path opacity="0.1" d="M242.085 43.7222H251.469V70.4593H242.085V43.7222Z" fill="#10C7AE"/>
<path opacity="0.1" d="M242.085 47.9438H251.469V49.8201H242.085V47.9438Z" fill="#10C7AE"/>
<path opacity="0.1" d="M242.085 62.4851H251.469V64.3614H242.085V62.4851Z" fill="#10C7AE"/>
<path opacity="0.1" d="M228.009 43.7222H237.393V70.4593H228.009V43.7222Z" fill="#10C7AE"/>
<path opacity="0.1" d="M228.009 47.9438H237.393V49.8201H228.009V47.9438Z" fill="#10C7AE"/>
<path opacity="0.1" d="M228.009 62.4851H237.393V64.3614H228.009V62.4851Z" fill="#10C7AE"/>
<path opacity="0.1" d="M213.932 43.7222H223.317V70.4593H213.932V43.7222Z" fill="#10C7AE"/>
<path opacity="0.1" d="M213.932 47.9438H223.317V49.8201H213.932V47.9438Z" fill="#10C7AE"/>
<path opacity="0.1" d="M213.932 62.4851H223.317V64.3614H213.932V62.4851Z" fill="#10C7AE"/>
<path opacity="0.1" d="M199.856 43.7222H209.24V70.4593H199.856V43.7222Z" fill="#10C7AE"/>
<path opacity="0.1" d="M199.856 47.9438H209.24V49.8201H199.856V47.9438Z" fill="#10C7AE"/>
<path opacity="0.1" d="M199.856 62.4851H209.24V64.3614H199.856V62.4851Z" fill="#10C7AE"/>
<path opacity="0.1" d="M185.78 43.7222H195.164V70.4593H185.78V43.7222Z" fill="#10C7AE"/>
<path opacity="0.1" d="M185.78 47.9438H195.164V49.8201H185.78V47.9438Z" fill="#10C7AE"/>
<path opacity="0.1" d="M185.78 62.4851H195.164V64.3614H185.78V62.4851Z" fill="#10C7AE"/>
<path opacity="0.1" d="M191.335 134.018L199.724 138.223L187.736 162.124L179.347 157.919L191.335 134.018Z" fill="#10C7AE"/>
<path opacity="0.1" d="M189.44 137.795L197.829 142L196.987 143.678L188.599 139.473L189.44 137.795Z" fill="#10C7AE"/>
<path opacity="0.1" d="M182.924 150.796L191.313 155.001L190.471 156.678L182.083 152.473L182.924 150.796Z" fill="#10C7AE"/>
<path opacity="0.1" d="M270.238 88.7531H279.622V115.49H270.238V88.7531Z" fill="#10C7AE"/>
<path opacity="0.1" d="M270.238 92.9748H279.622V94.8511H270.238V92.9748Z" fill="#10C7AE"/>
<path opacity="0.1" d="M270.238 107.516H279.622V109.392H270.238V107.516Z" fill="#10C7AE"/>
<path opacity="0.1" d="M256.161 88.7531H265.546V115.49H256.161V88.7531Z" fill="#10C7AE"/>
<path opacity="0.1" d="M256.161 92.9748H265.546V94.8511H256.161V92.9748Z" fill="#10C7AE"/>
<path opacity="0.1" d="M256.161 107.516H265.546V109.392H256.161V107.516Z" fill="#10C7AE"/>
<path opacity="0.1" d="M242.085 88.7531H251.469V115.49H242.085V88.7531Z" fill="#10C7AE"/>
<path opacity="0.1" d="M242.085 92.9748H251.469V94.8511H242.085V92.9748Z" fill="#10C7AE"/>
<path opacity="0.1" d="M242.085 107.516H251.469V109.392H242.085V107.516Z" fill="#10C7AE"/>
<path opacity="0.1" d="M183.434 88.7531H192.818V115.49H183.434V88.7531Z" fill="#10C7AE"/>
<path opacity="0.1" d="M183.434 92.9748H192.818V94.8511H183.434V92.9748Z" fill="#10C7AE"/>
<path opacity="0.1" d="M183.434 107.516H192.818V109.392H183.434V107.516Z" fill="#10C7AE"/>
<path opacity="0.1" d="M169.357 88.7531H178.741V115.49H169.357V88.7531Z" fill="#10C7AE"/>
<path opacity="0.1" d="M169.357 92.9748H178.741V94.8511H169.357V92.9748Z" fill="#10C7AE"/>
<path opacity="0.1" d="M169.357 107.516H178.741V109.392H169.357V107.516Z" fill="#10C7AE"/>
<path opacity="0.1" d="M155.281 88.7531H164.665V115.49H155.281V88.7531Z" fill="#10C7AE"/>
<path opacity="0.1" d="M155.281 92.9748H164.665V94.8511H155.281V92.9748Z" fill="#10C7AE"/>
<path opacity="0.1" d="M155.281 107.516H164.665V109.392H155.281V107.516Z" fill="#10C7AE"/>
<path opacity="0.1" d="M270.238 134.722H279.622V161.459H270.238V134.722Z" fill="#10C7AE"/>
<path opacity="0.1" d="M270.238 138.944H279.622V140.82H270.238V138.944Z" fill="#10C7AE"/>
<path opacity="0.1" d="M270.238 153.485H279.622V155.361H270.238V153.485Z" fill="#10C7AE"/>
<path opacity="0.1" d="M256.161 134.722H265.546V161.459H256.161V134.722Z" fill="#10C7AE"/>
<path opacity="0.1" d="M256.161 138.944H265.546V140.82H256.161V138.944Z" fill="#10C7AE"/>
<path opacity="0.1" d="M256.161 153.485H265.546V155.361H256.161V153.485Z" fill="#10C7AE"/>
<path opacity="0.1" d="M242.085 134.722H251.469V161.459H242.085V134.722Z" fill="#10C7AE"/>
<path opacity="0.1" d="M242.085 138.944H251.469V140.82H242.085V138.944Z" fill="#10C7AE"/>
<path opacity="0.1" d="M242.085 153.485H251.469V155.361H242.085V153.485Z" fill="#10C7AE"/>
<path opacity="0.1" d="M228.009 134.722H237.393V161.459H228.009V134.722Z" fill="#10C7AE"/>
<path opacity="0.1" d="M228.009 138.944H237.393V140.82H228.009V138.944Z" fill="#10C7AE"/>
<path opacity="0.1" d="M228.009 153.485H237.393V155.361H228.009V153.485Z" fill="#10C7AE"/>
<path opacity="0.1" d="M213.932 134.722H223.317V161.459H213.932V134.722Z" fill="#10C7AE"/>
<path opacity="0.1" d="M213.932 138.944H223.317V140.82H213.932V138.944Z" fill="#10C7AE"/>
<path opacity="0.1" d="M213.932 153.485H223.317V155.361H213.932V153.485Z" fill="#10C7AE"/>
<path opacity="0.1" d="M199.856 134.722H209.24V161.459H199.856V134.722Z" fill="#10C7AE"/>
<path opacity="0.1" d="M199.856 138.944H209.24V140.82H199.856V138.944Z" fill="#10C7AE"/>
<path opacity="0.1" d="M199.856 153.485H209.24V155.361H199.856V153.485Z" fill="#10C7AE"/>
<path opacity="0.1" d="M171.703 46.1051V70.4593H181.088V44.3179C177.947 44.8714 174.819 45.4672 171.703 46.1051Z" fill="#10C7AE"/>
<path opacity="0.1" d="M171.703 47.9438H181.088V49.8201H171.703V47.9438Z" fill="#10C7AE"/>
<path opacity="0.1" d="M171.703 62.4851H181.088V64.3614H171.703V62.4851Z" fill="#10C7AE"/>
<path opacity="0.1" d="M157.627 49.3605V70.4687H167.011V47.1089C165.791 47.3763 164.576 47.6577 163.361 47.9439C161.44 48.3942 159.529 48.8664 157.627 49.3605Z" fill="#10C7AE"/>
<path opacity="0.1" d="M157.627 49.3605V49.8295H167.011V47.9532H163.361C161.44 48.3973 159.529 48.8664 157.627 49.3605Z" fill="#10C7AE"/>
<path opacity="0.1" d="M157.627 62.4851H167.011V64.3614H157.627V62.4851Z" fill="#10C7AE"/>
<g opacity="0.1">
<path opacity="0.1" d="M223.134 105.771C223.134 105.771 225.977 104.805 227.357 107.314C227.717 107.994 227.901 108.753 227.89 109.522C227.88 110.291 227.675 111.045 227.296 111.714C226.395 113.337 224.541 115.467 221.032 115.26C218.052 115.101 217.062 112.831 216.809 110.715C216.712 109.924 216.818 109.121 217.117 108.382C217.417 107.643 217.9 106.993 218.521 106.492C219.141 105.992 219.88 105.658 220.665 105.522C221.451 105.386 222.259 105.452 223.012 105.715L223.134 105.771Z" fill="#10C7AE"/>
<path opacity="0.1" d="M226.676 111.944C227.056 111.275 227.26 110.521 227.271 109.752C227.281 108.983 227.098 108.224 226.737 107.544C225.367 105.039 222.514 106.001 222.514 106.001L222.369 105.949C221.283 105.557 220.09 105.583 219.023 106.024C219.612 105.674 220.272 105.458 220.954 105.393C221.637 105.328 222.325 105.416 222.969 105.649L223.115 105.701C223.115 105.701 225.958 104.734 227.338 107.244C227.699 107.923 227.882 108.683 227.871 109.452C227.861 110.221 227.656 110.975 227.277 111.644C226.572 112.988 225.439 114.059 224.058 114.688C225.165 114.03 226.071 113.081 226.676 111.944Z" fill="#10C7AE"/>
<path opacity="0.2" d="M224.602 106.977C224.602 106.977 223.547 107.807 220.985 106.977H224.602Z" fill="#10C7AE"/>
<path opacity="0.1" d="M224.832 100.949C224.832 100.949 223.026 105.846 223.176 107.127L221.745 106.977C221.745 106.977 224.157 102.685 223.551 100.949H224.832Z" fill="#10C7AE"/>
<path opacity="0.2" d="M224.832 100.949C224.832 100.949 223.026 105.846 223.176 107.127L221.745 106.977C221.745 106.977 224.157 102.685 223.551 100.949H224.832Z" fill="#10C7AE"/>
<path opacity="0.1" d="M217.447 101.362C217.447 101.362 220.295 99.9077 221.567 101.109C222.838 102.309 223.035 105.382 223.035 105.382C223.035 105.382 218.395 106.01 217.447 101.362Z" fill="#10C7AE"/>
<path opacity="0.1" d="M217.447 101.362C217.447 101.362 220.295 99.9077 221.567 101.109C222.838 102.309 223.035 105.382 223.035 105.382C223.035 105.382 218.395 106.01 217.447 101.362Z" fill="#10C7AE"/>
<path opacity="0.1" d="M223.04 105.382C223.04 105.382 222.294 101.817 217.452 101.357L223.04 105.382Z" fill="#10C7AE"/>
</g>
<g opacity="0.1">
<path opacity="0.1" d="M163.075 152.209C163.075 152.209 165.918 151.243 167.298 153.752C167.658 154.432 167.842 155.191 167.831 155.96C167.82 156.729 167.616 157.483 167.237 158.152C166.336 159.775 164.482 161.905 160.973 161.699C157.993 161.539 157.003 159.269 156.75 157.153C156.652 156.362 156.759 155.559 157.058 154.82C157.358 154.081 157.841 153.431 158.462 152.93C159.082 152.43 159.82 152.096 160.606 151.96C161.392 151.824 162.2 151.89 162.953 152.153L163.075 152.209Z" fill="#10C7AE"/>
<path opacity="0.1" d="M166.617 158.382C166.997 157.713 167.201 156.959 167.212 156.19C167.222 155.421 167.039 154.662 166.678 153.982C165.308 151.477 162.455 152.439 162.455 152.439L162.31 152.387C161.224 151.995 160.031 152.022 158.964 152.463C159.553 152.112 160.213 151.896 160.895 151.832C161.577 151.767 162.266 151.854 162.91 152.087L163.056 152.139C163.056 152.139 165.899 151.173 167.279 153.682C167.639 154.361 167.823 155.121 167.812 155.89C167.802 156.659 167.597 157.413 167.218 158.082C166.513 159.426 165.38 160.497 163.999 161.126C165.106 160.468 166.012 159.519 166.617 158.382Z" fill="#10C7AE"/>
<path opacity="0.2" d="M164.543 153.415C164.543 153.415 163.487 154.245 160.926 153.415H164.543Z" fill="#10C7AE"/>
<path opacity="0.1" d="M164.773 147.387C164.773 147.387 162.967 152.284 163.117 153.565L161.686 153.415C161.686 153.415 164.098 149.123 163.492 147.387H164.773Z" fill="#10C7AE"/>
<path opacity="0.2" d="M164.773 147.387C164.773 147.387 162.967 152.284 163.117 153.565L161.686 153.415C161.686 153.415 164.098 149.123 163.492 147.387H164.773Z" fill="#10C7AE"/>
<path opacity="0.1" d="M157.388 147.8C157.388 147.8 160.236 146.346 161.507 147.547C162.779 148.747 162.976 151.82 162.976 151.82C162.976 151.82 158.336 152.448 157.388 147.8Z" fill="#10C7AE"/>
<path opacity="0.1" d="M157.388 147.8C157.388 147.8 160.236 146.346 161.507 147.547C162.779 148.747 162.976 151.82 162.976 151.82C162.976 151.82 158.336 152.448 157.388 147.8Z" fill="#10C7AE"/>
<path opacity="0.1" d="M162.981 151.82C162.981 151.82 162.235 148.255 157.392 147.795L162.981 151.82Z" fill="#10C7AE"/>
</g>
<path opacity="0.1" d="M68.1248 295.534C54.1313 295.534 42.7874 291.502 42.7874 286.528C42.7874 281.554 54.1313 277.522 68.1248 277.522C82.1183 277.522 93.4623 281.554 93.4623 286.528C93.4623 291.502 82.1183 295.534 68.1248 295.534Z" fill="black"/>
<path d="M68.1061 286.603C68.1061 286.603 53.6496 237.543 70.8181 201.429C78.0205 186.273 80.4135 169.26 77.0868 152.814C75.4944 145.013 73.1903 137.375 70.2034 129.994" stroke="#535461" stroke-width="2" stroke-miterlimit="10"/>
<path d="M80.8828 107.169C80.8828 113.182 69.9924 130.623 69.9924 130.623C69.9924 130.623 59.102 113.187 59.102 107.169C59.102 104.281 60.2494 101.512 62.2917 99.4705C64.3341 97.4288 67.1041 96.2817 69.9924 96.2817C72.8807 96.2817 75.6507 97.4288 77.6931 99.4705C79.7354 101.512 80.8828 104.281 80.8828 107.169Z" fill="#10C7AE"/>
<path d="M98.8864 140.473C95.6019 145.52 76.9976 154.24 76.9976 154.24C76.9976 154.24 77.3355 133.686 80.6059 128.638C81.3832 127.437 82.3895 126.401 83.5675 125.588C84.7454 124.776 86.0719 124.204 87.4712 123.904C88.8704 123.604 90.3151 123.582 91.7226 123.841C93.1302 124.099 94.4731 124.632 95.6746 125.409C96.8762 126.186 97.9128 127.192 98.7255 128.37C99.5381 129.547 100.111 130.873 100.411 132.272C100.711 133.671 100.732 135.115 100.474 136.522C100.215 137.929 99.6824 139.272 98.9051 140.473H98.8864Z" fill="#10C7AE"/>
<path d="M98.1122 197.39C92.7397 200.097 72.2633 198.225 72.2633 198.225C72.2633 198.225 82.9332 180.654 88.3057 177.947C89.5827 177.303 90.9741 176.918 92.4003 176.811C93.8265 176.705 95.2597 176.881 96.618 177.328C97.9763 177.776 99.2331 178.487 100.317 179.42C101.4 180.353 102.289 181.49 102.933 182.767C103.577 184.044 103.963 185.434 104.07 186.86C104.176 188.286 104 189.719 103.552 191.077C103.105 192.435 102.394 193.691 101.46 194.774C100.527 195.858 99.3892 196.747 98.1122 197.39Z" fill="#10C7AE"/>
<path d="M87.7895 240.32C82.9519 243.894 62.4521 245.512 62.4521 245.512C62.4521 245.512 69.997 226.388 74.8346 222.814C75.9844 221.964 77.2904 221.348 78.6782 221.002C80.066 220.656 81.5083 220.587 82.9228 220.799C84.3373 221.01 85.6963 221.498 86.9222 222.235C88.1481 222.971 89.2169 223.942 90.0675 225.091C90.9181 226.241 91.534 227.546 91.8798 228.934C92.2257 230.321 92.2949 231.763 92.0834 233.177C91.8718 234.591 91.3837 235.95 90.647 237.175C89.9103 238.401 88.9393 239.469 87.7895 240.32Z" fill="#10C7AE"/>
<path d="M54.1282 155.404C58.4402 159.592 78.5272 163.931 78.5272 163.931C78.5272 163.931 73.6052 143.972 69.2931 139.783C68.2689 138.779 67.0562 137.987 65.7249 137.453C64.3935 136.919 62.9697 136.653 61.5352 136.67C60.1007 136.688 58.6838 136.989 57.3659 137.555C56.048 138.122 54.855 138.943 53.8555 139.972C52.8561 141.001 52.0698 142.217 51.5418 143.55C51.0139 144.884 50.7547 146.308 50.7792 147.742C50.8037 149.176 51.1113 150.591 51.6844 151.906C52.2575 153.221 53.0848 154.409 54.1188 155.404H54.1282Z" fill="#10C7AE"/>
<path d="M42.7452 205.763C48.1177 208.47 68.5941 206.598 68.5941 206.598C68.5941 206.598 57.9242 189.027 52.5517 186.32C51.2747 185.676 49.8834 185.29 48.4571 185.184C47.0309 185.078 45.5977 185.254 44.2394 185.701C42.8811 186.149 41.6243 186.86 40.5407 187.793C39.4571 188.726 38.5679 189.863 37.924 191.14C37.2801 192.417 36.8941 193.807 36.7879 195.233C36.6817 196.659 36.8575 198.092 37.3051 199.45C37.7528 200.808 38.4637 202.064 39.3971 203.147C40.3305 204.231 41.4682 205.12 42.7452 205.763Z" fill="#10C7AE"/>
<path d="M38.3627 256.231C43.2003 259.805 63.7002 261.423 63.7002 261.423C63.7002 261.423 56.1553 242.299 51.3177 238.725C50.1692 237.856 48.8597 237.223 47.4649 236.863C46.0701 236.503 44.6178 236.423 43.192 236.629C41.7662 236.834 40.3953 237.32 39.1587 238.058C37.922 238.797 36.8443 239.773 35.9877 240.931C35.1312 242.089 34.513 243.405 34.1688 244.803C33.8246 246.202 33.7614 247.655 33.9827 249.077C34.204 250.5 34.7055 251.865 35.4582 253.093C36.2108 254.321 37.1997 255.387 38.3674 256.231H38.3627Z" fill="#10C7AE"/>
<path opacity="0.1" d="M131.187 269.641C117.193 269.641 105.849 265.609 105.849 260.635C105.849 255.661 117.193 251.629 131.187 251.629C145.18 251.629 156.524 255.661 156.524 260.635C156.524 265.609 145.18 269.641 131.187 269.641Z" fill="black"/>
<path d="M132.214 261.916C132.214 261.916 125.444 238.931 133.486 222.012C136.905 214.937 137.936 206.944 136.423 199.234C135.676 195.579 134.596 192.001 133.195 188.544" stroke="#535461" stroke-width="2" stroke-miterlimit="10"/>
<path d="M138.202 177.849C138.202 180.663 133.101 188.834 133.101 188.834C133.101 188.834 128.001 180.663 128.001 177.849C128.001 176.496 128.539 175.198 129.496 174.242C130.452 173.285 131.75 172.748 133.104 172.748C134.457 172.748 135.755 173.285 136.712 174.242C137.669 175.198 138.206 176.496 138.206 177.849H138.202Z" fill="#10C7AE"/>
<path d="M146.633 193.45C145.104 195.795 136.376 199.9 136.376 199.9C136.376 199.9 136.536 190.27 138.066 187.906C138.43 187.343 138.901 186.858 139.453 186.478C140.005 186.097 140.626 185.83 141.281 185.689C141.936 185.549 142.613 185.539 143.272 185.66C143.931 185.781 144.56 186.031 145.123 186.395C145.685 186.759 146.17 187.23 146.551 187.782C146.931 188.334 147.199 188.955 147.34 189.61C147.48 190.265 147.49 190.941 147.369 191.6C147.247 192.259 146.998 192.888 146.633 193.45Z" fill="#10C7AE"/>
<path d="M146.267 220.117C143.752 221.383 134.157 220.511 134.157 220.511C134.157 220.511 139.154 212.279 141.664 211.007C142.263 210.706 142.915 210.525 143.583 210.475C144.251 210.426 144.922 210.508 145.559 210.718C146.844 211.141 147.908 212.058 148.517 213.266C149.126 214.474 149.231 215.874 148.807 217.159C148.383 218.444 147.466 219.508 146.258 220.117H146.267Z" fill="#10C7AE"/>
<path d="M141.444 240.231C139.178 241.905 129.573 242.665 129.573 242.665C129.573 242.665 133.111 233.706 135.372 232.031C135.911 231.633 136.523 231.345 137.173 231.183C137.824 231.021 138.499 230.989 139.162 231.088C139.825 231.188 140.462 231.416 141.036 231.762C141.61 232.107 142.111 232.562 142.509 233.101C142.907 233.639 143.196 234.251 143.358 234.901C143.519 235.551 143.551 236.227 143.452 236.89C143.353 237.552 143.124 238.188 142.779 238.763C142.433 239.337 141.978 239.837 141.439 240.235L141.444 240.231Z" fill="#10C7AE"/>
<path d="M125.664 200.449C127.687 202.409 137.104 204.445 137.104 204.445C137.104 204.445 134.795 195.092 132.778 193.131C131.807 192.189 130.501 191.67 129.149 191.69C127.796 191.71 126.506 192.266 125.563 193.237C124.621 194.207 124.102 195.512 124.122 196.864C124.142 198.217 124.698 199.506 125.669 200.449H125.664Z" fill="#10C7AE"/>
<path d="M120.32 224.043C122.835 225.309 132.43 224.437 132.43 224.437C132.43 224.437 127.433 216.205 124.923 214.934C123.715 214.325 122.314 214.22 121.029 214.644C119.743 215.068 118.679 215.984 118.07 217.192C117.461 218.4 117.357 219.801 117.78 221.085C118.204 222.37 119.121 223.434 120.329 224.043H120.32Z" fill="#10C7AE"/>
<path d="M118.288 247.67C120.555 249.345 130.159 250.105 130.159 250.105C130.159 250.105 126.622 241.145 124.36 239.471C123.821 239.072 123.21 238.784 122.56 238.621C121.909 238.459 121.234 238.427 120.571 238.525C119.908 238.624 119.272 238.853 118.697 239.198C118.123 239.543 117.622 239.997 117.223 240.535C116.825 241.074 116.536 241.685 116.374 242.335C116.211 242.985 116.179 243.661 116.278 244.323C116.377 244.986 116.605 245.622 116.95 246.197C117.295 246.771 117.75 247.272 118.288 247.67Z" fill="#10C7AE"/>
<path d="M0.88208 307.641L146.169 230.596H176.635L168.752 165.001C168.579 163.565 168.695 162.109 169.092 160.719C169.49 159.328 170.16 158.031 171.065 156.902C171.97 155.774 173.091 154.838 174.362 154.148C175.634 153.458 177.03 153.028 178.469 152.885L179.286 152.917H179.366L290.198 154.601C293.035 154.401 295.851 155.218 298.14 156.905C300.429 158.593 302.042 161.041 302.689 163.809L307.85 201.504L308.596 200.364L308.957 199.815C306.231 198.042 311.608 187.502 316.164 179.645L316.577 178.932C313.687 177.727 310.477 176.587 310.477 176.587L317.586 172.149C317.586 172.149 324.127 162.684 331.09 155.005C326.398 125.632 336.308 91.6801 336.425 91.2111L336.688 91.2814C335.312 89.0546 334.587 86.4873 334.595 83.8701C334.594 81.8765 335.017 79.9055 335.836 78.0876C336.654 76.2697 337.85 74.6464 339.343 73.3253C339.62 70.8111 340.019 68.2218 340.591 65.4965C340.695 65.0275 340.803 64.5068 340.92 64.0096C341.455 61.6642 341.994 59.3188 342.703 57.0204C343.194 55.3817 343.804 53.7811 344.528 52.2312C348.23 44.4117 355.846 38.8204 364.188 36.8503C368.481 35.8371 372.883 37.4085 376.89 36.658C378.907 36.2874 380.714 34.3501 382.68 33.5668C385.171 32.5724 387.869 32.108 390.506 31.6905C393.791 31.1417 397.202 30.5976 400.472 31.3105C405.868 32.4832 409.983 36.855 413.01 41.4707C416.036 46.0863 418.387 51.1992 422.126 55.2614C424.627 57.982 427.705 60.1679 429.934 63.1136C433.219 67.4479 434.359 72.9642 435.414 78.321C436.719 84.9114 438.023 91.5957 437.995 98.2894C437.995 99.842 437.972 101.399 437.836 102.957C437.493 106.953 436.583 110.893 436.367 114.895C436.367 115.326 436.334 115.758 436.325 116.189C436.372 123.511 438.535 130.73 440.684 137.766C441.369 140.004 442.063 142.26 442.875 144.465C447.192 144.831 451.321 145.694 454.469 147.392C465.974 153.546 474.828 167.271 474.828 167.271L491.659 182.75C491.659 182.75 485.015 185.851 481.913 191.166C481.802 191.353 481.675 191.53 481.533 191.696L481.777 192.259L491.659 215.074C491.659 215.074 485.456 219.502 476.175 218.616C474.666 218.427 473.136 218.539 471.67 218.944C471.67 219.226 471.699 219.512 471.708 219.812C472.276 232.866 472.576 261.47 465.819 280.791L481.088 298.616L511.586 307.646L512.914 331.099H-0.00476074L0.88208 307.641ZM440.763 220.182C439.455 220.449 438.18 220.854 436.958 221.393V237.698C437.765 231.937 438.887 226.036 440.449 221.13C440.548 220.811 440.637 220.497 440.763 220.182ZM352.697 251.559C352.697 251.502 352.697 251.446 352.697 251.39C352.678 250.821 352.601 250.255 352.467 249.701C352.277 248.843 351.853 248.054 351.243 247.421C350.112 246.291 348.943 245.076 347.775 243.758C347.056 245.614 346.017 247.33 344.706 248.829C343.205 250.503 339.85 252.009 335.139 253.369C340.957 252.467 346.817 251.862 352.697 251.559ZM314.405 249.307L329.739 253.843C336.988 252.22 342.145 250.363 344.054 248.214C345.39 246.674 346.428 244.899 347.113 242.979C341.642 236.637 336.322 228.105 335.102 216.453C335.069 216.148 335.045 215.834 335.017 215.515C333.354 214.57 331.783 213.471 330.325 212.232L330.048 212.879C325.925 222.251 320.094 230.773 312.852 238.012L314.405 249.307ZM337.133 91.9663C335.927 96.3146 327.749 127.1 331.85 154.17C334.403 151.421 336.979 148.963 339.287 147.345C339.834 146.967 340.406 146.627 341 146.327C341.511 141.364 341.746 136.219 341.783 131.12C341.736 124.806 341.361 118.544 340.845 112.587C340.286 106.273 339.63 100.25 339.221 94.3257C338.44 93.6192 337.739 92.8279 337.133 91.9663Z" fill="url(#paint0_linear)"/>
<path d="M344.617 99.5465H348.62V71.8713H344.617C341.561 71.8713 338.63 73.085 336.469 75.2455C334.308 77.406 333.093 80.3363 333.093 83.3917V87.998C333.09 89.5132 333.385 91.0143 333.963 92.4153C334.54 93.8162 335.388 95.0896 336.459 96.1623C337.529 97.2351 338.801 98.0862 340.201 98.6669C341.601 99.2476 343.102 99.5465 344.617 99.5465Z" fill="#DFE6F5"/>
<path d="M349.187 99.5465H348.052C346.489 99.5465 345.223 98.2801 345.223 96.718V74.7232C345.223 73.1611 346.489 71.8947 348.052 71.8947H349.187C350.75 71.8947 352.017 73.1611 352.017 74.7232V96.718C352.017 98.2801 350.75 99.5465 349.187 99.5465Z" fill="#535461"/>
<g opacity="0.1">
<path opacity="0.1" d="M344.617 99.5465H348.62V71.8713H344.617C341.561 71.8713 338.63 73.085 336.469 75.2455C334.308 77.406 333.093 80.3363 333.093 83.3917V87.998C333.09 89.5132 333.385 91.0143 333.963 92.4153C334.54 93.8162 335.388 95.0896 336.459 96.1623C337.529 97.2351 338.801 98.0862 340.201 98.6669C341.601 99.2476 343.102 99.5465 344.617 99.5465Z" fill="black"/>
<path opacity="0.1" d="M349.187 99.5465H348.052C346.489 99.5465 345.223 98.2801 345.223 96.718V74.7232C345.223 73.1611 346.489 71.8947 348.052 71.8947H349.187C350.75 71.8947 352.017 73.1611 352.017 74.7232V96.718C352.017 98.2801 350.75 99.5465 349.187 99.5465Z" fill="black"/>
</g>
<path d="M342.712 86.5204H412.667V159.062H342.712V86.5204Z" fill="#403F51"/>
<path opacity="0.1" d="M342.712 76.5291H412.667V149.071H342.712V76.5291Z" fill="#424157"/>
<path d="M345.101 146.684L349.323 177.361L351.313 191.78L352.045 197.076L358.177 209.028L369.439 230.962L391.163 233.57L429.376 179.697C429.376 179.697 449.383 141.472 418.964 144.943C401.908 146.895 397.849 131.631 397.544 117.845C397.468 110.904 398.097 103.973 399.421 97.1589L369.007 111.93C369.714 115.223 370.246 118.248 370.602 121.007C372.085 132.292 370.856 139.328 368.284 143.592C361.438 154.949 345.101 146.684 345.101 146.684Z" fill="#9C5862"/>
<path opacity="0.1" d="M368.998 111.935C369.705 115.228 370.236 118.253 370.593 121.011C373.749 121.909 377.015 122.364 380.296 122.362C386.338 122.372 392.28 120.819 397.544 117.854C397.468 110.913 398.097 103.982 399.421 97.1683L368.998 111.935Z" fill="#9C5862"/>
<path d="M380.296 121.49C360.858 121.49 345.101 105.737 345.101 86.3046C345.101 66.8724 360.858 51.1195 380.296 51.1195C399.734 51.1195 415.492 66.8724 415.492 86.3046C415.492 105.737 399.734 121.49 380.296 121.49Z" fill="#9F616A"/>
<path d="M333.366 286.556L478.061 297.861L454.601 270.495C429.427 255.119 429.643 233.983 432.989 220.872C434.027 216.67 435.596 212.618 437.657 208.812L387.644 209.047H387.222L383.111 218.386L382.924 218.808L379.865 225.755L369.439 207.077L365.812 201.232L363.785 197.948C363.785 197.948 333.802 190.997 333.37 208.807C333.318 210.852 333.398 212.899 333.61 214.934C335.102 229.268 342.947 238.8 349.446 245.297C356.831 252.675 333.366 286.556 333.366 286.556Z" fill="#10C7AE"/>
<path d="M350.647 248.392C351.707 252.614 349.033 259.871 345.485 266.996C362.494 268.825 381.146 267.873 381.146 267.873L400.285 273.089L454.16 288.728C456.506 285.693 458.382 281.88 459.936 277.583L454.596 271.354C437.793 261.09 432.304 248.261 431.501 236.966C431.182 231.839 431.683 226.695 432.984 221.726C434.022 217.528 435.589 213.478 437.648 209.675L387.635 209.91H387.212L383.102 219.249L382.914 219.671L379.855 226.618L369.429 207.94L365.812 202.095L363.785 198.812C363.785 198.812 333.802 191.851 333.366 209.675C333.314 211.72 333.394 213.767 333.605 215.801C335.097 230.136 342.942 239.668 349.441 246.164C350.04 246.782 350.457 247.553 350.647 248.392Z" fill="#10C7AE"/>
<path d="M237.773 270.917C238.641 281.34 263.843 267.442 263.843 267.442C263.843 267.442 271.664 264.833 298.17 247.895C311.627 239.298 322.239 226.912 328.669 212.297C329.683 210.038 330.531 207.709 331.207 205.327L312.946 191.851L307.62 199.989L289.917 227.031L263.847 244.387C263.847 244.387 236.905 260.495 237.773 270.917Z" fill="#9C5862"/>
<path d="M5.74786 305.235H506.739L456.585 290.398L331.203 253.304L251.249 229.648H148.266L5.74786 305.235Z" fill="#CBCDDA"/>
<path d="M506.739 305.235L508.044 328.257H4.87973L5.7478 305.235H506.739Z" fill="#CBCDDA"/>
<path opacity="0.1" d="M506.739 305.235L508.044 328.257H4.87973L5.7478 305.235H506.739Z" fill="black"/>
<path d="M375.393 272.676L269.497 261.799L268.192 282.649L316.596 287.447C319.935 287.718 323.296 287.457 326.553 286.673L375.482 274.037C375.638 273.996 375.775 273.902 375.869 273.771C375.964 273.64 376.01 273.481 375.999 273.32C375.988 273.159 375.922 273.007 375.812 272.889C375.701 272.772 375.553 272.697 375.393 272.676Z" fill="#535461"/>
<path opacity="0.2" d="M375.393 272.676L269.497 261.799L268.192 282.649L316.596 287.447C319.935 287.718 323.296 287.457 326.553 286.673L375.482 274.037C375.638 273.996 375.775 273.902 375.869 273.771C375.964 273.64 376.01 273.481 375.999 273.32C375.988 273.159 375.922 273.007 375.812 272.889C375.701 272.772 375.553 272.697 375.393 272.676Z" fill="black"/>
<path d="M375.393 272.24L268.624 261.362L267.319 282.213L315.728 286.134C319.065 286.409 322.424 286.153 325.68 285.374L375.482 273.605C375.641 273.567 375.781 273.473 375.878 273.342C375.975 273.21 376.022 273.048 376.012 272.885C376.001 272.722 375.933 272.568 375.82 272.45C375.707 272.332 375.556 272.258 375.393 272.24Z" fill="#535461"/>
<path opacity="0.3" d="M350.079 273L293.623 267.249L292.934 278.272L318.529 280.35C320.294 280.494 322.071 280.356 323.794 279.942L350.126 273.718C350.209 273.696 350.281 273.647 350.331 273.578C350.381 273.509 350.406 273.425 350.4 273.339C350.395 273.254 350.359 273.174 350.301 273.112C350.242 273.05 350.164 273.01 350.079 273Z" fill="white"/>
<path opacity="0.1" d="M307.62 199.998C307.962 200.467 308.558 200.678 309.469 200.547C318.158 199.243 328.153 211.842 328.153 211.842C328.153 211.842 328.331 212.011 328.655 212.311C329.669 210.052 330.517 207.723 331.193 205.341L312.945 191.851L307.62 199.998Z" fill="black"/>
<path opacity="0.1" d="M333.605 215.773C337.692 218.048 343.318 219.681 347.705 215.304C355.283 207.729 368.566 208.737 369.392 208.784C368.036 208.596 366.835 205.81 365.812 202.076L363.785 198.793C363.785 198.793 333.802 191.851 333.366 209.675C333.315 211.711 333.395 213.748 333.605 215.773Z" fill="black"/>
<path opacity="0.1" d="M349.333 177.361L352.054 197.062L358.187 209.014C361.987 208.041 365.918 207.672 369.833 207.921C365.511 207.325 362.72 180.33 362.72 180.33L362.471 180.274L349.333 177.361Z" fill="black"/>
<path d="M309.469 199.679C318.158 198.375 328.153 210.975 328.153 210.975C328.153 210.975 339.883 222.27 347.705 214.45C355.283 206.875 368.566 207.883 369.392 207.93C365.07 207.33 362.278 180.335 362.278 180.335L362.03 180.279L320.331 171.01C320.331 171.01 317.844 174.819 315.038 179.669C309.975 188.408 303.876 200.519 309.469 199.679Z" fill="#10C7AE"/>
<path opacity="0.1" d="M319.899 182.305C319.463 183.173 326.853 187.516 330.325 186.212C333.797 184.908 342.492 191.841 343.36 192.728C344.228 193.614 363.78 191.424 363.78 191.424C362.969 187.748 362.384 184.026 362.03 180.279L320.331 171.01C320.331 171.01 317.844 174.819 315.038 179.669C317.633 180.734 320.11 181.878 319.899 182.305Z" fill="black"/>
<path opacity="0.1" d="M345.101 146.684L349.324 177.361L351.313 191.78C357.141 191.344 364.207 190.561 364.207 190.561C364.207 190.561 356.821 159.719 368.988 143.653C368.988 143.653 368.73 143.653 368.266 143.606C361.439 154.949 345.101 146.684 345.101 146.684Z" fill="black"/>
<path d="M368.561 143.644C368.561 143.644 346.4 141.908 337.71 147.988C329.021 154.067 316.418 172.314 316.418 172.314L309.464 176.657C309.464 176.657 320.326 180.565 319.89 181.437C319.453 182.31 326.844 186.649 330.316 185.344C333.788 184.04 342.482 190.973 343.35 191.86C344.218 192.746 363.77 190.556 363.77 190.556C363.77 190.556 356.394 159.714 368.561 143.644Z" fill="#10C7AE"/>
<path d="M208.457 263.314C213.487 263.192 331.742 260.124 343.031 247.534C355.053 234.128 343.383 195.5 333.558 167.609C322.865 137.246 335.613 93.6456 335.74 93.1484L334.9 92.9279C334.769 93.4298 321.954 137.283 332.737 167.895C348.019 211.289 351.177 237.149 342.384 246.952C331.339 259.266 209.663 262.432 208.433 262.432L208.457 263.314Z" fill="#DFE6F5"/>
<path d="M290.212 155.08L180.82 153.419C179.41 153.563 178.043 153.986 176.798 154.664C175.553 155.342 174.456 156.261 173.571 157.368C172.685 158.475 172.029 159.747 171.641 161.109C171.253 162.472 171.14 163.899 171.309 165.306L183.72 268.595C184.017 271.077 185.175 273.376 186.994 275.09C188.813 276.805 191.176 277.826 193.672 277.977L305.48 284.896C307.064 284.991 308.648 284.731 310.118 284.137C311.589 283.543 312.908 282.628 313.98 281.46C315.053 280.292 315.851 278.9 316.317 277.384C316.784 275.869 316.906 274.268 316.676 272.7L301.83 164.147C301.432 161.432 300.002 158.975 297.839 157.286C295.675 155.597 292.944 154.807 290.212 155.08Z" fill="#535461"/>
<path opacity="0.2" d="M290.212 155.08L180.82 153.419C179.41 153.563 178.043 153.986 176.798 154.664C175.553 155.342 174.456 156.261 173.571 157.368C172.685 158.475 172.029 159.747 171.641 161.109C171.253 162.472 171.14 163.899 171.309 165.306L183.72 268.595C184.017 271.077 185.175 273.376 186.994 275.09C188.813 276.805 191.176 277.826 193.672 277.977L305.48 284.896C307.064 284.991 308.648 284.731 310.118 284.137C311.589 283.543 312.908 282.628 313.98 281.46C315.053 280.292 315.851 278.9 316.317 277.384C316.784 275.869 316.906 274.268 316.676 272.7L301.83 164.147C301.432 161.432 300.002 158.975 297.839 157.286C295.675 155.597 292.944 154.807 290.212 155.08Z" fill="black"/>
<path d="M289.344 155.08L179.952 153.419C178.54 153.561 177.171 153.982 175.924 154.659C174.677 155.336 173.578 156.255 172.69 157.362C171.803 158.469 171.145 159.741 170.756 161.105C170.367 162.469 170.253 163.897 170.422 165.306L182.833 268.595C183.13 271.077 184.289 273.376 186.107 275.09C187.926 276.805 190.29 277.826 192.785 277.977L304.608 284.896C306.191 284.991 307.775 284.731 309.245 284.137C310.716 283.543 312.035 282.628 313.107 281.46C314.18 280.292 314.978 278.9 315.444 277.384C315.911 275.869 316.033 274.268 315.803 272.7L300.957 164.147C300.559 161.433 299.13 158.976 296.968 157.288C294.805 155.599 292.075 154.808 289.344 155.08Z" fill="#535461"/>
<path opacity="0.3" d="M235.821 219.005C232.942 219.005 230.608 216.672 230.608 213.794C230.608 210.916 232.942 208.582 235.821 208.582C238.7 208.582 241.034 210.916 241.034 213.794C241.034 216.672 238.7 219.005 235.821 219.005Z" fill="white"/>
<path opacity="0.1" d="M345.485 267.001C362.494 268.83 381.146 267.878 381.146 267.878L400.285 273.089L454.16 288.728C456.506 285.693 458.382 281.88 459.936 277.583L454.596 271.354C437.793 261.09 432.304 248.261 431.501 236.966C430.066 248.2 429.826 258.318 429.826 258.318L408.102 256.146L376.538 248.641C374.364 248.124 372.137 247.864 369.903 247.867C365.793 247.867 358.478 247.956 350.666 248.378C351.707 252.605 349.033 259.866 345.485 267.001Z" fill="black"/>
<path opacity="0.1" d="M321.635 261.362C331.63 273.089 382.9 270.486 382.9 270.486L402.021 275.697L455.9 291.331C456.135 291.026 456.369 290.717 456.585 290.393L331.198 253.299C323.193 254.913 318.28 257.427 321.635 261.362Z" fill="black"/>
<path d="M321.635 260.495C331.63 272.221 382.9 269.618 382.9 269.618L402.021 274.825L455.9 290.464C468.569 274.046 468.287 234.921 467.598 219.094C467.41 214.844 467.199 212.274 467.199 212.274C467.199 212.274 448.951 200.979 440.693 212.274C439.22 214.286 437.986 217.101 436.939 220.365C432.149 235.418 431.562 260.054 431.562 260.054L409.838 257.882L378.274 250.377C376.099 249.859 373.87 249.6 371.635 249.603C358.553 249.64 313.058 250.428 321.635 260.495Z" fill="#9C5862"/>
<path opacity="0.1" d="M436.944 220.37C439.717 219.77 443.081 219.901 447.642 221.834C456.768 225.741 463.717 224.873 463.717 224.873C463.717 224.873 463.159 220.44 467.593 219.094C467.405 214.844 467.194 212.274 467.194 212.274C467.194 212.274 448.947 200.979 440.688 212.274C439.229 214.286 437.986 217.101 436.944 220.37Z" fill="black"/>
<path opacity="0.1" d="M382.924 219.662C383.215 219.723 387.123 220.459 394.654 218.789C402.476 217.054 405.516 220.525 409.861 222.265C414.206 224.005 425.481 224.873 429.845 223.138C430.873 222.725 431.905 222.199 432.998 221.73C434.031 217.531 435.593 213.48 437.648 209.675L387.635 209.91L383.102 219.249L382.924 219.662Z" fill="black"/>
<path d="M382.924 218.794C382.924 218.794 386.832 219.662 394.654 217.926C402.476 216.191 405.516 219.662 409.861 221.402C414.206 223.142 425.505 224.01 429.85 222.27C434.195 220.53 438.539 217.058 447.68 220.966C456.82 224.873 463.755 224.005 463.755 224.005C463.755 224.005 462.887 217.054 472.008 217.907C481.13 218.761 487.215 214.432 487.215 214.432L477.522 192.048L474.612 185.326L401.913 180.358H401.566L382.924 218.794Z" fill="#10C7AE"/>
<path opacity="0.1" d="M394.654 197.948C399.435 190.129 424.637 197.081 424.637 197.081C424.637 197.081 436.803 200.557 439.412 194.041C442.021 187.526 460.677 191.851 460.677 191.851C460.677 191.851 474.214 196.926 477.489 192.057L474.58 185.335L401.913 180.358L394.654 197.948Z" fill="black"/>
<path d="M415.492 146.684C415.492 146.684 439.389 141.904 450.683 147.988C461.977 154.071 470.666 167.534 470.666 167.534L487.183 182.736C487.183 182.736 480.665 185.776 477.625 190.987C474.584 196.199 460.677 190.987 460.677 190.987C460.677 190.987 441.993 186.644 439.384 193.159C436.775 199.675 424.609 196.199 424.609 196.199C424.609 196.199 399.407 189.247 394.626 197.067L415.492 146.684Z" fill="#10C7AE"/>
<path opacity="0.1" d="M387.944 35.3821C391.182 34.838 394.513 34.3079 397.723 35.0068C403.015 36.1561 407.051 40.4481 410.021 44.9699C412.991 49.4918 415.299 54.5109 418.964 58.4933C421.418 61.1623 424.435 63.306 426.622 66.1955C429.84 70.4499 430.962 75.8771 431.999 81.1119C433.519 88.7953 435.044 96.5913 434.373 104.411C434.035 108.332 433.144 112.193 432.932 116.138C432.505 124.06 434.847 131.837 437.155 139.427C438.755 144.671 440.407 150.014 443.569 154.494C445.667 157.463 448.355 159.949 450.917 162.524C451.536 163.049 452.001 163.732 452.264 164.499C452.818 166.741 450.11 168.251 448.041 169.265C441.711 172.422 437.559 178.58 432.637 183.656C427.715 188.731 420.672 193.089 413.901 191.053C411.893 190.448 409.988 189.299 407.895 189.336C406.488 189.36 405.136 189.932 403.799 190.401C400.472 191.569 396.969 192.156 393.444 192.137C392.665 192.203 391.883 192.04 391.196 191.668C390.15 190.959 389.948 189.533 389.845 188.276C389.183 180.386 388.526 172.468 388.972 164.565C389.981 146.665 406.525 125.96 400.233 109.162C397.498 101.836 392.496 95.5312 389.727 88.2184C386.809 80.5115 376.519 74.2541 374.478 66.2658C374.248 65.3652 373.934 64.3895 373.145 63.9205C372.062 63.2544 370.649 63.836 369.603 64.5584C363.681 68.6393 361.753 76.3133 359.599 83.1712C357.864 88.6947 355.713 94.0794 353.166 99.2791C351.759 102.094 348.737 105.354 346.091 103.646C347.423 115.504 355.118 125.861 356.859 137.663C358.558 149.165 354.443 160.92 356.038 172.431C357.088 179.842 360.445 186.735 365.633 192.132C359.779 193.295 353.758 193.349 347.883 192.291C341.929 191.217 335.557 188.398 333.408 182.741C331.062 176.517 334.689 169.837 336.533 163.439C340.958 148.058 340.615 129.867 339.212 113.924C337.767 97.5295 335.599 83.1759 339.273 67.1336C340.174 63.1981 341.089 59.2297 342.816 55.5804C346.447 47.911 353.917 42.4229 362.105 40.4903C366.328 39.4959 370.635 41.0391 374.567 40.3074C376.547 39.9368 378.321 38.0417 380.245 37.2725C382.713 36.264 385.359 35.8136 387.944 35.3821Z" fill="black"/>
<path d="M333.431 181.84C335.58 187.498 341.952 190.317 347.911 191.391C353.786 192.446 359.806 192.392 365.661 191.231C360.475 185.833 357.118 178.941 356.066 171.53C354.466 160.015 358.581 148.26 356.887 136.763C355.146 124.956 347.451 114.599 346.119 102.741C348.765 104.448 351.81 101.202 353.199 98.3738C355.745 93.1736 357.896 87.7891 359.632 82.2659C361.786 75.408 363.714 67.7246 369.636 63.6531C370.682 62.9307 372.094 62.3491 373.178 63.0198C373.971 63.4889 374.281 64.4787 374.511 65.3652C376.547 73.3394 386.842 79.6062 389.755 87.3131C392.528 94.6259 397.53 100.916 400.266 108.257C406.534 125.05 389.99 145.755 389.005 163.655C388.564 171.558 389.221 179.481 389.877 187.366C389.985 188.628 390.187 190.054 391.233 190.762C391.919 191.134 392.699 191.297 393.476 191.231C396.992 191.252 400.486 190.669 403.804 189.505C405.141 189.036 406.483 188.464 407.9 188.44C409.993 188.408 411.898 189.557 413.906 190.157C420.676 192.193 427.724 187.835 432.641 182.76C437.559 177.685 441.725 171.535 448.05 168.397C450.12 167.365 452.827 165.873 452.273 163.626C452.008 162.861 451.543 162.181 450.927 161.656C448.365 159.081 445.671 156.59 443.574 153.626C440.412 149.146 438.765 143.803 437.16 138.559C434.842 130.97 432.501 123.192 432.937 115.27C433.143 111.344 434.035 107.483 434.377 103.543C435.053 95.7376 433.524 87.9323 432.003 80.2489C430.971 75.014 429.85 69.5868 426.626 65.3324C424.435 62.4429 421.423 60.2992 418.964 57.6302C415.295 53.6478 412.995 48.6287 410.021 44.1022C407.046 39.5756 403.011 35.2883 397.718 34.1391C394.513 33.4401 391.177 33.9749 387.94 34.5143C385.354 34.9506 382.708 35.4009 380.263 36.3906C378.335 37.1599 376.561 39.0596 374.586 39.4208C370.654 40.1573 366.332 38.614 362.124 39.6084C353.936 41.5363 346.466 47.0245 342.834 54.6938C342.124 56.2118 341.525 57.7795 341.042 59.3845C340.347 61.6361 339.817 63.9392 339.292 66.2377C339.179 66.7067 339.071 67.2133 338.968 67.6965C335.754 82.9695 337.828 94.0912 339.231 109.979C340.634 125.866 340.976 147.153 336.556 162.515C334.712 168.932 331.066 175.616 333.431 181.84Z" fill="#47465A"/>
<path opacity="0.05" d="M383.552 209.455C383.552 209.455 380.076 215.084 380.076 219.01C380.076 219.01 377.467 209.455 375.294 209.455" fill="black"/>
<path d="M391.811 210.754V239.424C391.804 244.107 393.381 248.655 396.287 252.328C396.783 252.954 397.314 253.553 397.878 254.12C399.815 256.066 402.119 257.61 404.655 258.663C407.192 259.717 409.911 260.259 412.658 260.259C415.404 260.259 418.124 259.717 420.66 258.663C423.197 257.61 425.5 256.066 427.438 254.12C428.001 253.553 428.532 252.954 429.029 252.328C431.934 248.655 433.512 244.107 433.505 239.424V210.754C433.515 205.883 431.809 201.163 428.686 197.423C428.132 196.759 427.535 196.133 426.898 195.547C423.036 191.927 417.94 189.912 412.646 189.912C407.352 189.912 402.256 191.927 398.394 195.547C398.225 195.697 398.061 195.861 397.896 196.016C397.427 196.485 397.019 196.954 396.606 197.423C393.492 201.166 391.794 205.885 391.811 210.754Z" fill="#DFE6F5"/>
<path opacity="0.1" d="M391.811 210.754V239.424C391.804 244.107 393.381 248.655 396.287 252.328C396.783 252.954 397.314 253.553 397.878 254.12C399.815 256.066 402.119 257.61 404.655 258.663C407.192 259.717 409.911 260.259 412.658 260.259C415.404 260.259 418.124 259.717 420.66 258.663C423.197 257.61 425.5 256.066 427.438 254.12C428.001 253.553 428.532 252.954 429.029 252.328C431.934 248.655 433.512 244.107 433.505 239.424V210.754C433.515 205.883 431.809 201.163 428.686 197.423C428.132 196.759 427.535 196.133 426.898 195.547C423.036 191.927 417.94 189.912 412.646 189.912C407.352 189.912 402.256 191.927 398.394 195.547C398.225 195.697 398.061 195.861 397.896 196.016C397.427 196.485 397.019 196.954 396.606 197.423C393.492 201.166 391.794 205.885 391.811 210.754Z" fill="black"/>
<path d="M390.938 210.754V239.424C390.931 244.107 392.509 248.655 395.414 252.328C395.911 252.954 396.442 253.553 397.005 254.12C398.943 256.066 401.246 257.61 403.782 258.663C406.319 259.717 409.038 260.259 411.785 260.259C414.532 260.259 417.251 259.717 419.788 258.663C422.324 257.61 424.627 256.066 426.565 254.12C427.128 253.553 427.659 252.954 428.156 252.328C431.071 248.658 432.659 244.11 432.66 239.424V210.754C432.67 205.883 430.964 201.163 427.841 197.423C427.287 196.759 426.69 196.133 426.054 195.547C422.191 191.927 417.096 189.912 411.801 189.912C406.507 189.912 401.411 191.927 397.549 195.547C397.38 195.697 397.216 195.861 397.052 196.016C396.583 196.485 396.174 196.954 395.761 197.423C392.637 201.162 390.929 205.882 390.938 210.754Z" fill="#DFE6F5"/>
<path opacity="0.1" d="M420.925 197.723C420.205 197.723 419.621 197.139 419.621 196.419C419.621 195.699 420.205 195.115 420.925 195.115C421.646 195.115 422.23 195.699 422.23 196.419C422.23 197.139 421.646 197.723 420.925 197.723Z" fill="black"/>
<path opacity="0.1" d="M420.925 202.067C420.205 202.067 419.621 201.483 419.621 200.763C419.621 200.043 420.205 199.459 420.925 199.459C421.646 199.459 422.23 200.043 422.23 200.763C422.23 201.483 421.646 202.067 420.925 202.067Z" fill="black"/>
<path opacity="0.1" d="M420.925 206.411C420.205 206.411 419.621 205.827 419.621 205.107C419.621 204.386 420.205 203.802 420.925 203.802C421.646 203.802 422.23 204.386 422.23 205.107C422.23 205.827 421.646 206.411 420.925 206.411Z" fill="black"/>
<path opacity="0.1" d="M420.925 210.754C420.205 210.754 419.621 210.17 419.621 209.45C419.621 208.73 420.205 208.146 420.925 208.146C421.646 208.146 422.23 208.73 422.23 209.45C422.23 210.17 421.646 210.754 420.925 210.754Z" fill="black"/>
<path opacity="0.1" d="M420.925 215.098C420.205 215.098 419.621 214.514 419.621 213.794C419.621 213.074 420.205 212.49 420.925 212.49C421.646 212.49 422.23 213.074 422.23 213.794C422.23 214.514 421.646 215.098 420.925 215.098Z" fill="black"/>
<path opacity="0.1" d="M420.925 219.441C420.205 219.441 419.621 218.858 419.621 218.137C419.621 217.417 420.205 216.833 420.925 216.833C421.646 216.833 422.23 217.417 422.23 218.137C422.23 218.858 421.646 219.441 420.925 219.441Z" fill="black"/>
<path opacity="0.1" d="M420.925 223.785C420.205 223.785 419.621 223.201 419.621 222.481C419.621 221.761 420.205 221.177 420.925 221.177C421.646 221.177 422.23 221.761 422.23 222.481C422.23 223.201 421.646 223.785 420.925 223.785Z" fill="black"/>
<path opacity="0.1" d="M420.925 228.133C420.205 228.133 419.621 227.549 419.621 226.829C419.621 226.109 420.205 225.525 420.925 225.525C421.646 225.525 422.23 226.109 422.23 226.829C422.23 227.549 421.646 228.133 420.925 228.133Z" fill="black"/>
<path opacity="0.1" d="M420.925 232.477C420.205 232.477 419.621 231.893 419.621 231.173C419.621 230.453 420.205 229.869 420.925 229.869C421.646 229.869 422.23 230.453 422.23 231.173C422.23 231.893 421.646 232.477 420.925 232.477Z" fill="black"/>
<path opacity="0.1" d="M420.925 236.82C420.205 236.82 419.621 236.237 419.621 235.516C419.621 234.796 420.205 234.212 420.925 234.212C421.646 234.212 422.23 234.796 422.23 235.516C422.23 236.237 421.646 236.82 420.925 236.82Z" fill="black"/>
<path opacity="0.1" d="M420.925 241.164C420.205 241.164 419.621 240.58 419.621 239.86C419.621 239.14 420.205 238.556 420.925 238.556C421.646 238.556 422.23 239.14 422.23 239.86C422.23 240.58 421.646 241.164 420.925 241.164Z" fill="black"/>
<path opacity="0.1" d="M420.925 245.508C420.205 245.508 419.621 244.924 419.621 244.204C419.621 243.483 420.205 242.9 420.925 242.9C421.646 242.9 422.23 243.483 422.23 244.204C422.23 244.924 421.646 245.508 420.925 245.508Z" fill="black"/>
<path opacity="0.1" d="M420.925 249.851C420.205 249.851 419.621 249.267 419.621 248.547C419.621 247.827 420.205 247.243 420.925 247.243C421.646 247.243 422.23 247.827 422.23 248.547C422.23 249.267 421.646 249.851 420.925 249.851Z" fill="black"/>
<path opacity="0.1" d="M420.925 254.195C420.205 254.195 419.621 253.611 419.621 252.891C419.621 252.171 420.205 251.587 420.925 251.587C421.646 251.587 422.23 252.171 422.23 252.891C422.23 253.611 421.646 254.195 420.925 254.195Z" fill="black"/>
<path opacity="0.1" d="M425.702 196.419C425.702 196.666 425.773 196.909 425.905 197.117C426.038 197.326 426.227 197.492 426.451 197.598C426.675 197.703 426.924 197.742 427.169 197.711C427.414 197.68 427.646 197.581 427.837 197.423C427.282 196.759 426.685 196.133 426.049 195.547C425.826 195.783 425.702 196.095 425.702 196.419Z" fill="black"/>
<path opacity="0.1" d="M427.006 202.067C426.286 202.067 425.702 201.483 425.702 200.763C425.702 200.043 426.286 199.459 427.006 199.459C427.727 199.459 428.311 200.043 428.311 200.763C428.311 201.483 427.727 202.067 427.006 202.067Z" fill="black"/>
<path opacity="0.1" d="M427.006 206.411C426.286 206.411 425.702 205.827 425.702 205.107C425.702 204.386 426.286 203.802 427.006 203.802C427.727 203.802 428.311 204.386 428.311 205.107C428.311 205.827 427.727 206.411 427.006 206.411Z" fill="black"/>
<path opacity="0.1" d="M427.006 210.754C426.286 210.754 425.702 210.17 425.702 209.45C425.702 208.73 426.286 208.146 427.006 208.146C427.727 208.146 428.311 208.73 428.311 209.45C428.311 210.17 427.727 210.754 427.006 210.754Z" fill="black"/>
<path opacity="0.1" d="M427.006 215.098C426.286 215.098 425.702 214.514 425.702 213.794C425.702 213.074 426.286 212.49 427.006 212.49C427.727 212.49 428.311 213.074 428.311 213.794C428.311 214.514 427.727 215.098 427.006 215.098Z" fill="black"/>
<path opacity="0.1" d="M427.006 219.441C426.286 219.441 425.702 218.858 425.702 218.137C425.702 217.417 426.286 216.833 427.006 216.833C427.727 216.833 428.311 217.417 428.311 218.137C428.311 218.858 427.727 219.441 427.006 219.441Z" fill="black"/>
<path opacity="0.1" d="M427.006 223.785C426.286 223.785 425.702 223.201 425.702 222.481C425.702 221.761 426.286 221.177 427.006 221.177C427.727 221.177 428.311 221.761 428.311 222.481C428.311 223.201 427.727 223.785 427.006 223.785Z" fill="black"/>
<path opacity="0.1" d="M427.006 228.133C426.286 228.133 425.702 227.549 425.702 226.829C425.702 226.109 426.286 225.525 427.006 225.525C427.727 225.525 428.311 226.109 428.311 226.829C428.311 227.549 427.727 228.133 427.006 228.133Z" fill="black"/>
<path opacity="0.1" d="M427.006 232.477C426.286 232.477 425.702 231.893 425.702 231.173C425.702 230.453 426.286 229.869 427.006 229.869C427.727 229.869 428.311 230.453 428.311 231.173C428.311 231.893 427.727 232.477 427.006 232.477Z" fill="black"/>
<path opacity="0.1" d="M427.006 236.82C426.286 236.82 425.702 236.237 425.702 235.516C425.702 234.796 426.286 234.212 427.006 234.212C427.727 234.212 428.311 234.796 428.311 235.516C428.311 236.237 427.727 236.82 427.006 236.82Z" fill="black"/>
<path opacity="0.1" d="M427.006 241.164C426.286 241.164 425.702 240.58 425.702 239.86C425.702 239.14 426.286 238.556 427.006 238.556C427.727 238.556 428.311 239.14 428.311 239.86C428.311 240.58 427.727 241.164 427.006 241.164Z" fill="black"/>
<path opacity="0.1" d="M427.006 245.508C426.286 245.508 425.702 244.924 425.702 244.204C425.702 243.483 426.286 242.9 427.006 242.9C427.727 242.9 428.311 243.483 428.311 244.204C428.311 244.924 427.727 245.508 427.006 245.508Z" fill="black"/>
<path opacity="0.1" d="M427.006 249.851C426.286 249.851 425.702 249.267 425.702 248.547C425.702 247.827 426.286 247.243 427.006 247.243C427.727 247.243 428.311 247.827 428.311 248.547C428.311 249.267 427.727 249.851 427.006 249.851Z" fill="black"/>
<path opacity="0.1" d="M425.702 252.891C425.701 253.164 425.787 253.429 425.946 253.651C426.105 253.872 426.33 254.038 426.589 254.125C427.152 253.557 427.683 252.959 428.179 252.333C428.054 252.064 427.84 251.846 427.574 251.716C427.308 251.585 427.005 251.55 426.716 251.615C426.426 251.68 426.168 251.842 425.984 252.074C425.799 252.306 425.7 252.594 425.702 252.891Z" fill="black"/>
<path opacity="0.1" d="M414.84 197.723C414.119 197.723 413.535 197.139 413.535 196.419C413.535 195.699 414.119 195.115 414.84 195.115C415.56 195.115 416.144 195.699 416.144 196.419C416.144 197.139 415.56 197.723 414.84 197.723Z" fill="black"/>
<path opacity="0.1" d="M414.84 202.067C414.119 202.067 413.535 201.483 413.535 200.763C413.535 200.043 414.119 199.459 414.84 199.459C415.56 199.459 416.144 200.043 416.144 200.763C416.144 201.483 415.56 202.067 414.84 202.067Z" fill="black"/>
<path opacity="0.1" d="M414.84 206.411C414.119 206.411 413.535 205.827 413.535 205.107C413.535 204.386 414.119 203.802 414.84 203.802C415.56 203.802 416.144 204.386 416.144 205.107C416.144 205.827 415.56 206.411 414.84 206.411Z" fill="black"/>
<path opacity="0.1" d="M414.84 210.754C414.119 210.754 413.535 210.17 413.535 209.45C413.535 208.73 414.119 208.146 414.84 208.146C415.56 208.146 416.144 208.73 416.144 209.45C416.144 210.17 415.56 210.754 414.84 210.754Z" fill="black"/>
<path opacity="0.1" d="M414.84 215.098C414.119 215.098 413.535 214.514 413.535 213.794C413.535 213.074 414.119 212.49 414.84 212.49C415.56 212.49 416.144 213.074 416.144 213.794C416.144 214.514 415.56 215.098 414.84 215.098Z" fill="black"/>
<path opacity="0.1" d="M414.84 219.441C414.119 219.441 413.535 218.858 413.535 218.137C413.535 217.417 414.119 216.833 414.84 216.833C415.56 216.833 416.144 217.417 416.144 218.137C416.144 218.858 415.56 219.441 414.84 219.441Z" fill="black"/>
<path opacity="0.1" d="M414.84 223.785C414.119 223.785 413.535 223.201 413.535 222.481C413.535 221.761 414.119 221.177 414.84 221.177C415.56 221.177 416.144 221.761 416.144 222.481C416.144 223.201 415.56 223.785 414.84 223.785Z" fill="black"/>
<path opacity="0.1" d="M414.84 228.133C414.119 228.133 413.535 227.549 413.535 226.829C413.535 226.109 414.119 225.525 414.84 225.525C415.56 225.525 416.144 226.109 416.144 226.829C416.144 227.549 415.56 228.133 414.84 228.133Z" fill="black"/>
<path opacity="0.1" d="M414.84 232.477C414.119 232.477 413.535 231.893 413.535 231.173C413.535 230.453 414.119 229.869 414.84 229.869C415.56 229.869 416.144 230.453 416.144 231.173C416.144 231.893 415.56 232.477 414.84 232.477Z" fill="black"/>
<path opacity="0.1" d="M414.84 236.82C414.119 236.82 413.535 236.237 413.535 235.516C413.535 234.796 414.119 234.212 414.84 234.212C415.56 234.212 416.144 234.796 416.144 235.516C416.144 236.237 415.56 236.82 414.84 236.82Z" fill="black"/>
<path opacity="0.1" d="M414.84 241.164C414.119 241.164 413.535 240.58 413.535 239.86C413.535 239.14 414.119 238.556 414.84 238.556C415.56 238.556 416.144 239.14 416.144 239.86C416.144 240.58 415.56 241.164 414.84 241.164Z" fill="black"/>
<path opacity="0.1" d="M414.84 245.508C414.119 245.508 413.535 244.924 413.535 244.204C413.535 243.483 414.119 242.9 414.84 242.9C415.56 242.9 416.144 243.483 416.144 244.204C416.144 244.924 415.56 245.508 414.84 245.508Z" fill="black"/>
<path opacity="0.1" d="M414.84 249.851C414.119 249.851 413.535 249.267 413.535 248.547C413.535 247.827 414.119 247.243 414.84 247.243C415.56 247.243 416.144 247.827 416.144 248.547C416.144 249.267 415.56 249.851 414.84 249.851Z" fill="black"/>
<path opacity="0.1" d="M414.84 254.195C414.119 254.195 413.535 253.611 413.535 252.891C413.535 252.171 414.119 251.587 414.84 251.587C415.56 251.587 416.144 252.171 416.144 252.891C416.144 253.611 415.56 254.195 414.84 254.195Z" fill="black"/>
<path opacity="0.1" d="M408.759 197.723C408.038 197.723 407.454 197.139 407.454 196.419C407.454 195.699 408.038 195.115 408.759 195.115C409.479 195.115 410.063 195.699 410.063 196.419C410.063 197.139 409.479 197.723 408.759 197.723Z" fill="black"/>
<path opacity="0.1" d="M408.759 202.067C408.038 202.067 407.454 201.483 407.454 200.763C407.454 200.043 408.038 199.459 408.759 199.459C409.479 199.459 410.063 200.043 410.063 200.763C410.063 201.483 409.479 202.067 408.759 202.067Z" fill="black"/>
<path opacity="0.1" d="M408.759 206.411C408.038 206.411 407.454 205.827 407.454 205.107C407.454 204.386 408.038 203.802 408.759 203.802C409.479 203.802 410.063 204.386 410.063 205.107C410.063 205.827 409.479 206.411 408.759 206.411Z" fill="black"/>
<path opacity="0.1" d="M408.759 210.754C408.038 210.754 407.454 210.17 407.454 209.45C407.454 208.73 408.038 208.146 408.759 208.146C409.479 208.146 410.063 208.73 410.063 209.45C410.063 210.17 409.479 210.754 408.759 210.754Z" fill="black"/>
<path opacity="0.1" d="M408.759 215.098C408.038 215.098 407.454 214.514 407.454 213.794C407.454 213.074 408.038 212.49 408.759 212.49C409.479 212.49 410.063 213.074 410.063 213.794C410.063 214.514 409.479 215.098 408.759 215.098Z" fill="black"/>
<path opacity="0.1" d="M408.759 219.441C408.038 219.441 407.454 218.858 407.454 218.137C407.454 217.417 408.038 216.833 408.759 216.833C409.479 216.833 410.063 217.417 410.063 218.137C410.063 218.858 409.479 219.441 408.759 219.441Z" fill="black"/>
<path opacity="0.1" d="M408.759 223.785C408.038 223.785 407.454 223.201 407.454 222.481C407.454 221.761 408.038 221.177 408.759 221.177C409.479 221.177 410.063 221.761 410.063 222.481C410.063 223.201 409.479 223.785 408.759 223.785Z" fill="black"/>
<path opacity="0.1" d="M408.759 228.133C408.038 228.133 407.454 227.549 407.454 226.829C407.454 226.109 408.038 225.525 408.759 225.525C409.479 225.525 410.063 226.109 410.063 226.829C410.063 227.549 409.479 228.133 408.759 228.133Z" fill="black"/>
<path opacity="0.1" d="M408.759 232.477C408.038 232.477 407.454 231.893 407.454 231.173C407.454 230.453 408.038 229.869 408.759 229.869C409.479 229.869 410.063 230.453 410.063 231.173C410.063 231.893 409.479 232.477 408.759 232.477Z" fill="black"/>
<path opacity="0.1" d="M408.759 236.82C408.038 236.82 407.454 236.237 407.454 235.516C407.454 234.796 408.038 234.212 408.759 234.212C409.479 234.212 410.063 234.796 410.063 235.516C410.063 236.237 409.479 236.82 408.759 236.82Z" fill="black"/>
<path opacity="0.1" d="M408.759 241.164C408.038 241.164 407.454 240.58 407.454 239.86C407.454 239.14 408.038 238.556 408.759 238.556C409.479 238.556 410.063 239.14 410.063 239.86C410.063 240.58 409.479 241.164 408.759 241.164Z" fill="black"/>
<path opacity="0.1" d="M408.759 245.508C408.038 245.508 407.454 244.924 407.454 244.204C407.454 243.483 408.038 242.9 408.759 242.9C409.479 242.9 410.063 243.483 410.063 244.204C410.063 244.924 409.479 245.508 408.759 245.508Z" fill="black"/>
<path opacity="0.1" d="M408.759 249.851C408.038 249.851 407.454 249.267 407.454 248.547C407.454 247.827 408.038 247.243 408.759 247.243C409.479 247.243 410.063 247.827 410.063 248.547C410.063 249.267 409.479 249.851 408.759 249.851Z" fill="black"/>
<path opacity="0.1" d="M408.759 254.195C408.038 254.195 407.454 253.611 407.454 252.891C407.454 252.171 408.038 251.587 408.759 251.587C409.479 251.587 410.063 252.171 410.063 252.891C410.063 253.611 409.479 254.195 408.759 254.195Z" fill="black"/>
<path opacity="0.1" d="M402.673 197.723C401.952 197.723 401.368 197.139 401.368 196.419C401.368 195.699 401.952 195.115 402.673 195.115C403.393 195.115 403.977 195.699 403.977 196.419C403.977 197.139 403.393 197.723 402.673 197.723Z" fill="black"/>
<path opacity="0.1" d="M402.673 202.067C401.952 202.067 401.368 201.483 401.368 200.763C401.368 200.043 401.952 199.459 402.673 199.459C403.393 199.459 403.977 200.043 403.977 200.763C403.977 201.483 403.393 202.067 402.673 202.067Z" fill="black"/>
<path opacity="0.1" d="M402.673 206.411C401.952 206.411 401.368 205.827 401.368 205.107C401.368 204.386 401.952 203.802 402.673 203.802C403.393 203.802 403.977 204.386 403.977 205.107C403.977 205.827 403.393 206.411 402.673 206.411Z" fill="black"/>
<path opacity="0.1" d="M402.673 210.754C401.952 210.754 401.368 210.17 401.368 209.45C401.368 208.73 401.952 208.146 402.673 208.146C403.393 208.146 403.977 208.73 403.977 209.45C403.977 210.17 403.393 210.754 402.673 210.754Z" fill="black"/>
<path opacity="0.1" d="M402.673 215.098C401.952 215.098 401.368 214.514 401.368 213.794C401.368 213.074 401.952 212.49 402.673 212.49C403.393 212.49 403.977 213.074 403.977 213.794C403.977 214.514 403.393 215.098 402.673 215.098Z" fill="black"/>
<path opacity="0.1" d="M402.673 219.441C401.952 219.441 401.368 218.858 401.368 218.137C401.368 217.417 401.952 216.833 402.673 216.833C403.393 216.833 403.977 217.417 403.977 218.137C403.977 218.858 403.393 219.441 402.673 219.441Z" fill="black"/>
<path opacity="0.1" d="M402.673 223.785C401.952 223.785 401.368 223.201 401.368 222.481C401.368 221.761 401.952 221.177 402.673 221.177C403.393 221.177 403.977 221.761 403.977 222.481C403.977 223.201 403.393 223.785 402.673 223.785Z" fill="black"/>
<path opacity="0.1" d="M402.673 228.133C401.952 228.133 401.368 227.549 401.368 226.829C401.368 226.109 401.952 225.525 402.673 225.525C403.393 225.525 403.977 226.109 403.977 226.829C403.977 227.549 403.393 228.133 402.673 228.133Z" fill="black"/>
<path opacity="0.1" d="M402.673 232.477C401.952 232.477 401.368 231.893 401.368 231.173C401.368 230.453 401.952 229.869 402.673 229.869C403.393 229.869 403.977 230.453 403.977 231.173C403.977 231.893 403.393 232.477 402.673 232.477Z" fill="black"/>
<path opacity="0.1" d="M402.673 236.82C401.952 236.82 401.368 236.237 401.368 235.516C401.368 234.796 401.952 234.212 402.673 234.212C403.393 234.212 403.977 234.796 403.977 235.516C403.977 236.237 403.393 236.82 402.673 236.82Z" fill="black"/>
<path opacity="0.1" d="M402.673 241.164C401.952 241.164 401.368 240.58 401.368 239.86C401.368 239.14 401.952 238.556 402.673 238.556C403.393 238.556 403.977 239.14 403.977 239.86C403.977 240.58 403.393 241.164 402.673 241.164Z" fill="black"/>
<path opacity="0.1" d="M402.673 245.508C401.952 245.508 401.368 244.924 401.368 244.204C401.368 243.483 401.952 242.9 402.673 242.9C403.393 242.9 403.977 243.483 403.977 244.204C403.977 244.924 403.393 245.508 402.673 245.508Z" fill="black"/>
<path opacity="0.1" d="M402.673 249.851C401.952 249.851 401.368 249.267 401.368 248.547C401.368 247.827 401.952 247.243 402.673 247.243C403.393 247.243 403.977 247.827 403.977 248.547C403.977 249.267 403.393 249.851 402.673 249.851Z" fill="black"/>
<path opacity="0.1" d="M402.673 254.195C401.952 254.195 401.368 253.611 401.368 252.891C401.368 252.171 401.952 251.587 402.673 251.587C403.393 251.587 403.977 252.171 403.977 252.891C403.977 253.611 403.393 254.195 402.673 254.195Z" fill="black"/>
<path opacity="0.1" d="M395.757 197.423C395.947 197.58 396.179 197.68 396.424 197.711C396.67 197.742 396.919 197.703 397.142 197.598C397.366 197.492 397.555 197.326 397.688 197.117C397.821 196.908 397.891 196.666 397.892 196.419C397.893 196.092 397.769 195.776 397.544 195.537C397.375 195.688 397.211 195.852 397.047 196.006C396.597 196.466 396.17 196.935 395.757 197.423Z" fill="black"/>
<path opacity="0.1" d="M396.592 202.067C395.871 202.067 395.287 201.483 395.287 200.763C395.287 200.043 395.871 199.459 396.592 199.459C397.312 199.459 397.896 200.043 397.896 200.763C397.896 201.483 397.312 202.067 396.592 202.067Z" fill="black"/>
<path opacity="0.1" d="M396.592 206.411C395.871 206.411 395.287 205.827 395.287 205.107C395.287 204.386 395.871 203.802 396.592 203.802C397.312 203.802 397.896 204.386 397.896 205.107C397.896 205.827 397.312 206.411 396.592 206.411Z" fill="black"/>
<path opacity="0.1" d="M396.592 210.754C395.871 210.754 395.287 210.17 395.287 209.45C395.287 208.73 395.871 208.146 396.592 208.146C397.312 208.146 397.896 208.73 397.896 209.45C397.896 210.17 397.312 210.754 396.592 210.754Z" fill="black"/>
<path opacity="0.1" d="M396.592 215.098C395.871 215.098 395.287 214.514 395.287 213.794C395.287 213.074 395.871 212.49 396.592 212.49C397.312 212.49 397.896 213.074 397.896 213.794C397.896 214.514 397.312 215.098 396.592 215.098Z" fill="black"/>
<path opacity="0.1" d="M396.592 219.441C395.871 219.441 395.287 218.858 395.287 218.137C395.287 217.417 395.871 216.833 396.592 216.833C397.312 216.833 397.896 217.417 397.896 218.137C397.896 218.858 397.312 219.441 396.592 219.441Z" fill="black"/>
<path opacity="0.1" d="M396.592 223.785C395.871 223.785 395.287 223.201 395.287 222.481C395.287 221.761 395.871 221.177 396.592 221.177C397.312 221.177 397.896 221.761 397.896 222.481C397.896 223.201 397.312 223.785 396.592 223.785Z" fill="black"/>
<path opacity="0.1" d="M396.592 228.133C395.871 228.133 395.287 227.549 395.287 226.829C395.287 226.109 395.871 225.525 396.592 225.525C397.312 225.525 397.896 226.109 397.896 226.829C397.896 227.549 397.312 228.133 396.592 228.133Z" fill="black"/>
<path opacity="0.1" d="M396.592 232.477C395.871 232.477 395.287 231.893 395.287 231.173C395.287 230.453 395.871 229.869 396.592 229.869C397.312 229.869 397.896 230.453 397.896 231.173C397.896 231.893 397.312 232.477 396.592 232.477Z" fill="black"/>
<path opacity="0.1" d="M396.592 236.82C395.871 236.82 395.287 236.237 395.287 235.516C395.287 234.796 395.871 234.212 396.592 234.212C397.312 234.212 397.896 234.796 397.896 235.516C397.896 236.237 397.312 236.82 396.592 236.82Z" fill="black"/>
<path opacity="0.1" d="M396.592 241.164C395.871 241.164 395.287 240.58 395.287 239.86C395.287 239.14 395.871 238.556 396.592 238.556C397.312 238.556 397.896 239.14 397.896 239.86C397.896 240.58 397.312 241.164 396.592 241.164Z" fill="black"/>
<path opacity="0.1" d="M396.592 245.508C395.871 245.508 395.287 244.924 395.287 244.204C395.287 243.483 395.871 242.9 396.592 242.9C397.312 242.9 397.896 243.483 397.896 244.204C397.896 244.924 397.312 245.508 396.592 245.508Z" fill="black"/>
<path opacity="0.1" d="M396.592 249.851C395.871 249.851 395.287 249.267 395.287 248.547C395.287 247.827 395.871 247.243 396.592 247.243C397.312 247.243 397.896 247.827 397.896 248.547C397.896 249.267 397.312 249.851 396.592 249.851Z" fill="black"/>
<path opacity="0.1" d="M395.414 252.328C395.911 252.954 396.442 253.553 397.005 254.12C397.21 254.052 397.395 253.934 397.543 253.777C397.692 253.62 397.799 253.429 397.855 253.22C397.911 253.012 397.914 252.793 397.865 252.583C397.815 252.372 397.714 252.178 397.571 252.016C397.427 251.855 397.246 251.731 397.043 251.657C396.84 251.583 396.622 251.56 396.408 251.591C396.195 251.622 395.992 251.706 395.818 251.834C395.645 251.963 395.506 252.132 395.414 252.328Z" fill="black"/>
<path d="M412.16 237.252H413.174C414.573 237.252 415.708 238.386 415.708 239.785V292.926C415.708 294.325 414.573 295.459 413.174 295.459H412.16C410.761 295.459 409.627 294.325 409.627 292.926V239.785C409.627 238.386 410.761 237.252 412.16 237.252Z" fill="#54576B"/>
<path d="M395.072 287.64H430.263C432.064 287.64 433.524 289.099 433.524 290.9V292.199C433.524 294 432.064 295.459 430.263 295.459H395.072C393.271 295.459 391.811 294 391.811 292.199V290.9C391.811 289.099 393.271 287.64 395.072 287.64Z" fill="#54576B"/>
<path opacity="0.1" d="M412.16 237.252H413.174C414.573 237.252 415.708 238.386 415.708 239.785V292.926C415.708 294.325 414.573 295.459 413.174 295.459H412.16C410.761 295.459 409.627 294.325 409.627 292.926V239.785C409.627 238.386 410.761 237.252 412.16 237.252Z" fill="black"/>
<path opacity="0.1" d="M395.072 287.64H430.263C432.064 287.64 433.524 289.099 433.524 290.9V292.199C433.524 294 432.064 295.459 430.263 295.459H395.072C393.271 295.459 391.811 294 391.811 292.199V290.9C391.811 289.099 393.271 287.64 395.072 287.64Z" fill="black"/>
<path d="M411.292 237.252H412.306C413.705 237.252 414.84 238.386 414.84 239.785V292.926C414.84 294.325 413.705 295.459 412.306 295.459H411.292C409.893 295.459 408.759 294.325 408.759 292.926V239.785C408.759 238.386 409.893 237.252 411.292 237.252Z" fill="#54576B"/>
<path d="M394.204 287.64H429.394C431.196 287.64 432.656 289.099 432.656 290.9V292.199C432.656 294 431.196 295.459 429.394 295.459H394.204C392.403 295.459 390.943 294 390.943 292.199V290.9C390.943 289.099 392.403 287.64 394.204 287.64Z" fill="#54576B"/>
<path d="M375.576 242.177C378.837 249.27 384.065 255.28 390.639 259.492C397.213 263.705 404.858 265.944 412.667 265.944C420.476 265.944 428.121 263.705 434.695 259.492C441.269 255.28 446.497 249.27 449.758 242.177C454.08 235.981 457.857 223.625 457.857 225.094C457.857 231.026 456.688 236.901 454.417 242.382C452.146 247.863 448.817 252.843 444.621 257.038C440.425 261.233 435.443 264.561 429.961 266.831C424.478 269.101 418.602 270.27 412.667 270.27C406.733 270.27 400.856 269.101 395.374 266.831C389.891 264.561 384.909 261.233 380.713 257.038C376.517 252.843 373.188 247.863 370.917 242.382C368.646 236.901 367.477 231.026 367.477 225.094C367.477 223.625 371.255 235.981 375.576 242.177Z" fill="#54576B"/>
<path d="M412.667 179.913C419.957 179.914 427.137 181.68 433.596 185.058C440.055 188.437 445.6 193.328 449.758 199.313C452.237 204.668 453.518 210.497 453.512 216.397C453.512 217.848 453.435 219.298 453.282 220.741C452.261 210.683 447.541 201.362 440.038 194.584C432.535 187.806 422.782 184.054 412.669 184.054C402.557 184.054 392.804 187.806 385.301 194.584C377.798 201.362 373.078 210.683 372.057 220.741C371.903 219.298 371.827 217.848 371.827 216.397C371.821 210.497 373.102 204.668 375.581 199.313C379.738 193.328 385.282 188.438 391.74 185.059C398.198 181.681 405.378 179.915 412.667 179.913Z" fill="#54576B"/>
<path opacity="0.1" d="M411.799 244.635C410.84 244.635 410.063 243.858 410.063 242.9C410.063 241.941 410.84 241.164 411.799 241.164C412.758 241.164 413.535 241.941 413.535 242.9C413.535 243.858 412.758 244.635 411.799 244.635Z" fill="black"/>
<path opacity="0.2" d="M330.33 285.904C329.97 285.904 329.678 285.612 329.678 285.252C329.678 284.892 329.97 284.6 330.33 284.6C330.69 284.6 330.982 284.892 330.982 285.252C330.982 285.612 330.69 285.904 330.33 285.904Z" fill="black"/>
<path d="M354.935 298.367C357.529 298.384 360.094 297.821 362.443 296.721C371.198 292.602 375.515 293.123 382.046 293.906C388.167 294.75 394.358 294.975 400.524 294.577C402.243 294.497 403.923 294.035 405.441 293.223C406.959 292.412 408.277 291.272 409.298 289.887C418.983 277.315 412.503 244.218 412.221 242.815C412.192 242.709 412.124 242.617 412.03 242.559C411.936 242.501 411.824 242.481 411.716 242.502C411.608 242.524 411.511 242.585 411.447 242.675C411.382 242.764 411.354 242.875 411.367 242.984C411.433 243.322 418.054 277.095 408.608 289.352C407.663 290.64 406.441 291.7 405.032 292.456C403.624 293.212 402.064 293.643 400.468 293.719C394.361 294.11 388.23 293.886 382.168 293.048C375.487 292.241 371.072 291.707 362.091 295.933C347.766 302.673 330.977 285.529 330.813 285.355C330.731 285.284 330.624 285.246 330.515 285.249C330.406 285.252 330.302 285.296 330.224 285.372C330.146 285.448 330.099 285.551 330.092 285.66C330.086 285.768 330.12 285.876 330.189 285.96C330.316 286.111 342.323 298.367 354.935 298.367Z" fill="#DFE6F5"/>
<path d="M338.973 67.6918C346.147 54.7689 360.711 45.9081 377.448 45.9081C401.284 45.9081 420.681 63.836 420.681 85.873H423.745C423.745 62.1614 402.983 42.8685 377.471 42.8685C362.701 42.8685 349.525 49.3323 341.047 59.3798C340.352 61.6314 339.822 63.9345 339.296 66.233C339.179 66.7255 339.071 67.2086 338.973 67.6918Z" fill="#0EB39D"/>
<path d="M417.279 73.1753H413.277V100.851H417.279C420.336 100.851 423.267 99.6368 425.428 97.4763C427.589 95.3158 428.803 92.3855 428.803 89.3301V84.7238C428.807 83.2086 428.512 81.7075 427.934 80.3065C427.357 78.9055 426.508 77.6322 425.438 76.5595C424.368 75.4867 423.096 74.6356 421.696 74.0549C420.296 73.4742 418.795 73.1753 417.279 73.1753Z" fill="#DFE6F5"/>
<path d="M412.709 73.1987H413.845C415.407 73.1987 416.674 74.4651 416.674 76.0272V98.022C416.674 99.5841 415.407 100.851 413.845 100.851H412.709C411.147 100.851 409.88 99.5841 409.88 98.022V76.0272C409.88 74.4651 411.147 73.1987 412.709 73.1987Z" fill="#535461"/>
<path d="M158.772 272.02C158.772 272.02 166.223 269.496 169.808 276.058C170.754 277.838 171.235 279.827 171.207 281.841C171.179 283.856 170.643 285.831 169.648 287.583C167.302 291.838 162.441 297.364 153.226 296.871C145.428 296.454 142.833 290.506 142.129 284.971C141.859 282.895 142.127 280.786 142.906 278.843C143.686 276.901 144.951 275.192 146.581 273.878C148.21 272.565 150.15 271.692 152.214 271.342C154.278 270.993 156.397 271.18 158.368 271.884L158.772 272.02Z" fill="#10C7AE"/>
<path opacity="0.1" d="M168.072 288.174C169.066 286.422 169.602 284.447 169.63 282.432C169.658 280.418 169.177 278.429 168.231 276.649C164.646 270.082 157.195 272.611 157.195 272.611L156.815 272.475C153.974 271.447 150.852 271.517 148.06 272.672C149.6 271.755 151.325 271.191 153.11 271.02C154.895 270.85 156.696 271.077 158.382 271.687L158.762 271.823C158.762 271.823 166.214 269.299 169.798 275.861C170.744 277.641 171.225 279.63 171.197 281.644C171.17 283.659 170.633 285.634 169.639 287.386C168.086 290.201 165.453 293.536 161.193 295.361C164.1 293.64 166.48 291.154 168.072 288.174Z" fill="white"/>
<path opacity="0.2" d="M162.619 275.177C162.619 275.177 159.856 277.348 153.151 275.177H162.619Z" fill="black"/>
<path d="M163.211 259.397C163.211 259.397 158.476 272.217 158.87 275.571L155.117 275.177C155.117 275.177 161.456 263.933 159.856 259.397H163.211Z" fill="#10C7AE"/>
<path opacity="0.2" d="M163.211 259.397C163.211 259.397 158.476 272.217 158.87 275.571L155.117 275.177C155.117 275.177 161.456 263.933 159.856 259.397H163.211Z" fill="black"/>
<path d="M143.884 260.466C143.884 260.466 151.335 256.658 154.676 259.805C158.016 262.953 158.523 270.997 158.523 270.997C158.523 270.997 146.366 272.672 143.884 260.466Z" fill="#10C7AE"/>
<path opacity="0.1" d="M143.884 260.466C143.884 260.466 151.335 256.658 154.676 259.805C158.016 262.953 158.523 270.997 158.523 270.997C158.523 270.997 146.366 272.672 143.884 260.466Z" fill="white"/>
<path d="M158.519 270.997C158.519 270.997 156.562 261.658 143.884 260.466" stroke="#10C7AE" stroke-miterlimit="10"/>
</g>
<defs>
<linearGradient id="paint0_linear" x1="256.457" y1="331.113" x2="256.457" y2="30.9447" gradientUnits="userSpaceOnUse">
<stop stop-color="#808080" stop-opacity="0.25"/>
<stop offset="0.54" stop-color="#808080" stop-opacity="0.12"/>
<stop offset="1" stop-color="#808080" stop-opacity="0.1"/>
</linearGradient>
<clipPath id="clip0">
<rect width="535" height="364" fill="white" transform="matrix(-1 0 0 1 535 0)"/>
</clipPath>
</defs>
</svg>
